<?xml version="1.0" encoding="utf-8"?>
<!-- Generator: Adobe Illustrator 23.0.2, SVG Export Plug-In . SVG Version: 6.00 Build 0)  -->
<svg version="1.1" id="Layer_1" xmlns="http://www.w3.org/2000/svg" xmlns:xlink="http://www.w3.org/1999/xlink" x="0px" y="0px"
	 viewBox="0 0 181.11 65.4" style="enable-background:new 0 0 181.11 65.4;" xml:space="preserve">
<style type="text/css">
	.st0{fill:#FFFFFF;}
	.st1{clip-path:url(#SVGID_2_);}
	.st2{fill:#ED1C24;}
</style>
<g>
	<path d="M45.82,53.38c0.07,0.39,0.15,0.8,0.22,1.21s0.13,0.72,0.18,0.91c0.17,0.07,0.42,0.17,0.77,0.29
		c0.36,0.13,0.81,0.2,1.33,0.21c0.91-0.01,1.65-0.28,2.23-0.8s0.87-1.19,0.88-2.02c-0.01-0.58-0.14-1.04-0.41-1.39
		s-0.59-0.63-0.95-0.84c-0.38-0.2-0.71-0.36-1.04-0.49c-0.55-0.22-0.98-0.49-1.3-0.79s-0.49-0.69-0.5-1.19
		c0-0.44,0.13-0.8,0.39-1.09c0.25-0.29,0.63-0.45,1.12-0.46c0.42,0.01,0.76,0.1,1.01,0.28s0.45,0.42,0.59,0.69
		c0.13,0.28,0.24,0.56,0.31,0.84L51,48.69c-0.06-0.42-0.1-0.79-0.14-1.08s-0.08-0.58-0.11-0.81c-0.15-0.04-0.34-0.08-0.53-0.15
		c-0.15-0.04-0.32-0.08-0.53-0.13s-0.42-0.06-0.63-0.06c-0.62,0.01-1.13,0.13-1.57,0.36s-0.76,0.55-0.98,0.93
		c-0.22,0.39-0.34,0.83-0.34,1.29c0.01,0.42,0.11,0.79,0.31,1.08c0.18,0.29,0.42,0.55,0.7,0.74c0.27,0.21,0.53,0.36,0.78,0.48
		c0.25,0.13,0.43,0.21,0.56,0.27c0.31,0.14,0.6,0.29,0.87,0.48s0.49,0.39,0.67,0.66c0.17,0.27,0.25,0.59,0.27,0.98
		c-0.01,0.55-0.17,0.98-0.46,1.31c-0.31,0.32-0.73,0.49-1.27,0.51c-0.49-0.01-0.91-0.17-1.23-0.44c-0.34-0.27-0.6-0.56-0.78-0.91
		c-0.2-0.35-0.34-0.63-0.41-0.87L45.82,53.38z M57.4,54.27c-0.35,0.32-0.64,0.53-0.88,0.63c-0.24,0.11-0.49,0.17-0.78,0.15
		c-0.24,0.01-0.53-0.07-0.87-0.22s-0.63-0.44-0.9-0.83c-0.27-0.38-0.41-0.93-0.42-1.63c0.01-0.53,0.11-0.97,0.29-1.29
		s0.39-0.56,0.66-0.72c0.25-0.15,0.49-0.22,0.73-0.22c0.22-0.01,0.46,0.03,0.7,0.11s0.49,0.25,0.76,0.49
		c0.1,0.07,0.17,0.11,0.21,0.1c0.1-0.01,0.21-0.07,0.31-0.2s0.14-0.27,0.15-0.42c0-0.13-0.04-0.24-0.14-0.31
		c-0.17-0.13-0.36-0.22-0.6-0.29c-0.24-0.06-0.45-0.08-0.63-0.08c-0.25-0.01-0.59,0.04-1.01,0.15c-0.42,0.13-0.84,0.35-1.27,0.69
		c-0.39,0.32-0.7,0.7-0.92,1.15s-0.34,0.94-0.35,1.47c0,0.52,0.13,1.01,0.36,1.45c0.24,0.45,0.56,0.81,0.99,1.08
		c0.43,0.28,0.94,0.42,1.54,0.44c0.41-0.01,0.81-0.15,1.22-0.44c0.39-0.28,0.74-0.65,1.04-1.08L57.4,54.27z M60.03,45.83
		c-0.28,0.07-0.62,0.15-0.99,0.25s-0.74,0.17-1.09,0.24v0.28c0.32,0.01,0.55,0.04,0.69,0.08s0.22,0.11,0.27,0.24s0.06,0.32,0.04,0.6
		v7.01c0.01,0.38-0.03,0.62-0.14,0.73s-0.38,0.18-0.81,0.21v0.32h2.97v-0.32c-0.41-0.03-0.67-0.1-0.78-0.21s-0.15-0.35-0.14-0.73
		v-3.58c0.38-0.41,0.85-0.62,1.44-0.65c0.5,0.01,0.87,0.15,1.08,0.45s0.32,0.7,0.31,1.22v2.55c0.01,0.38-0.03,0.62-0.14,0.73
		s-0.38,0.18-0.81,0.21v0.32h2.97v-0.34c-0.41-0.01-0.67-0.08-0.78-0.2s-0.15-0.35-0.14-0.73v-2.98c-0.01-0.63-0.18-1.14-0.52-1.5
		c-0.34-0.35-0.81-0.53-1.41-0.52c-0.38,0.01-0.74,0.13-1.09,0.31s-0.66,0.41-0.9,0.67V45.83z M68.76,55.97
		c0.49,0,0.97-0.13,1.43-0.38c0.46-0.24,0.84-0.62,1.15-1.11c0.29-0.49,0.45-1.09,0.46-1.82c-0.01-0.59-0.14-1.12-0.39-1.59
		c-0.27-0.46-0.62-0.84-1.08-1.11s-0.98-0.41-1.58-0.42c-0.43,0-0.9,0.11-1.36,0.35c-0.48,0.24-0.88,0.62-1.2,1.11
		c-0.34,0.49-0.52,1.14-0.53,1.92c0,0.49,0.13,0.97,0.36,1.43s0.6,0.86,1.06,1.15S68.1,55.95,68.76,55.97L68.76,55.97z M68.91,55.55
		c-0.41-0.01-0.76-0.15-1.05-0.42s-0.53-0.65-0.69-1.12c-0.17-0.46-0.25-1-0.25-1.6c0.01-0.74,0.17-1.35,0.48-1.78
		s0.7-0.65,1.18-0.66c0.43,0.01,0.78,0.15,1.08,0.44c0.28,0.28,0.49,0.65,0.64,1.09c0.15,0.46,0.22,0.95,0.22,1.47
		c-0.01,0.94-0.17,1.6-0.48,1.99C69.74,55.36,69.36,55.56,68.91,55.55L68.91,55.55z M75.95,55.97c0.49,0,0.97-0.13,1.43-0.38
		c0.46-0.24,0.84-0.62,1.15-1.11c0.29-0.49,0.45-1.09,0.46-1.82c-0.01-0.59-0.14-1.12-0.39-1.59c-0.27-0.46-0.62-0.84-1.08-1.11
		s-0.98-0.41-1.58-0.42c-0.43,0-0.9,0.11-1.36,0.35c-0.48,0.24-0.88,0.62-1.2,1.11c-0.34,0.49-0.52,1.14-0.53,1.92
		c0,0.49,0.13,0.97,0.36,1.43s0.6,0.86,1.06,1.15S75.29,55.95,75.95,55.97L75.95,55.97z M76.11,55.55
		c-0.41-0.01-0.76-0.15-1.05-0.42s-0.53-0.65-0.69-1.12c-0.17-0.46-0.25-1-0.25-1.6c0.01-0.74,0.17-1.35,0.48-1.78
		s0.7-0.65,1.18-0.66c0.43,0.01,0.78,0.15,1.08,0.44c0.28,0.28,0.49,0.65,0.64,1.09c0.15,0.46,0.22,0.95,0.22,1.47
		c-0.01,0.94-0.17,1.6-0.48,1.99C76.93,55.36,76.55,55.56,76.11,55.55L76.11,55.55z M80.74,54.53c0.01,0.38-0.03,0.62-0.15,0.73
		s-0.41,0.18-0.87,0.21v0.32h3.14v-0.32c-0.46-0.03-0.74-0.1-0.87-0.21s-0.17-0.35-0.15-0.73v-8.7c-0.27,0.07-0.59,0.15-0.98,0.25
		s-0.76,0.17-1.11,0.24v0.28c0.32,0.01,0.55,0.04,0.69,0.08s0.22,0.11,0.27,0.24s0.06,0.32,0.04,0.59V54.53z M89.81,55.97
		c0.49,0,0.97-0.13,1.43-0.38c0.46-0.24,0.84-0.62,1.15-1.11c0.29-0.49,0.45-1.09,0.46-1.82c-0.01-0.59-0.14-1.12-0.39-1.59
		c-0.27-0.46-0.62-0.84-1.08-1.11s-0.98-0.41-1.58-0.42c-0.43,0-0.9,0.11-1.36,0.35c-0.48,0.24-0.88,0.62-1.2,1.11
		c-0.34,0.49-0.52,1.14-0.53,1.92c0,0.49,0.13,0.97,0.36,1.43s0.6,0.86,1.06,1.15S89.16,55.95,89.81,55.97L89.81,55.97z
		 M89.97,55.55c-0.41-0.01-0.76-0.15-1.05-0.42s-0.53-0.65-0.69-1.12c-0.17-0.46-0.25-1-0.25-1.6c0.01-0.74,0.17-1.35,0.48-1.78
		s0.7-0.65,1.18-0.66c0.43,0.01,0.78,0.15,1.08,0.44c0.28,0.28,0.49,0.65,0.64,1.09c0.15,0.46,0.22,0.95,0.22,1.47
		c-0.01,0.94-0.17,1.6-0.48,1.99C90.79,55.36,90.42,55.56,89.97,55.55L89.97,55.55z"/>
	<path d="M97.99,50.24c0.07-0.04,0.13-0.13,0.15-0.24s0.03-0.21-0.01-0.29H96.4v-0.59c0-0.6,0.04-1.08,0.13-1.46
		c0.07-0.36,0.17-0.62,0.27-0.74c0.2-0.25,0.41-0.38,0.62-0.38c0.24,0.01,0.45,0.07,0.66,0.18c0.2,0.11,0.38,0.24,0.53,0.39
		c0.11,0.13,0.25,0.11,0.41-0.01c0.13-0.11,0.21-0.22,0.27-0.35c0.03-0.07,0.04-0.13,0.04-0.2c0-0.06-0.03-0.13-0.1-0.2
		c-0.13-0.14-0.29-0.25-0.48-0.35s-0.38-0.15-0.57-0.17c-0.31,0.04-0.59,0.11-0.85,0.22c-0.27,0.13-0.55,0.29-0.81,0.52
		c-0.36,0.34-0.62,0.66-0.77,0.97s-0.24,0.53-0.28,0.69c-0.08,0.27-0.13,0.69-0.14,1.26v0.21h-0.66l-0.39,0.39l0.06,0.14h0.99v4.3
		c0.01,0.38-0.03,0.62-0.14,0.72c-0.11,0.11-0.38,0.18-0.78,0.22v0.32h3.26v-0.32c-0.38-0.03-0.66-0.07-0.84-0.11
		s-0.29-0.14-0.34-0.27c-0.06-0.13-0.08-0.31-0.07-0.56v-4.3H97.99z"/>
	<path d="M104.7,51.77l1.04,0.27c0.18,0,0.39-0.01,0.63-0.03c0.46-0.06,0.9-0.2,1.32-0.42c0.41-0.22,0.74-0.53,1.01-0.94
		s0.39-0.88,0.41-1.46c0-0.44-0.08-0.83-0.24-1.15s-0.38-0.58-0.66-0.77c-0.29-0.21-0.64-0.36-1.04-0.46
		c-0.39-0.08-0.83-0.13-1.29-0.13h-3.54V47c0.35,0.01,0.62,0.07,0.8,0.14c0.17,0.07,0.28,0.22,0.34,0.46
		c0.04,0.24,0.07,0.6,0.06,1.11v5.05c0.01,0.51-0.01,0.87-0.07,1.11s-0.17,0.39-0.35,0.46s-0.46,0.13-0.84,0.14v0.32h3.91v-0.32
		c-0.45-0.01-0.77-0.07-0.98-0.14s-0.35-0.22-0.41-0.46c-0.07-0.24-0.1-0.6-0.08-1.11V51.77z M104.7,47.53
		c0-0.14,0.01-0.24,0.04-0.29c0.01-0.04,0.04-0.07,0.08-0.08c0.06-0.01,0.14-0.04,0.25-0.06s0.27-0.01,0.46-0.01
		c0.73-0.01,1.29,0.15,1.67,0.49c0.38,0.35,0.57,0.9,0.57,1.66c-0.01,0.6-0.11,1.07-0.32,1.4s-0.48,0.58-0.78,0.7
		c-0.32,0.13-0.63,0.2-0.92,0.18c-0.24,0-0.45-0.01-0.63-0.06c-0.18-0.03-0.32-0.07-0.42-0.11V47.53z M114.6,54.45
		c-0.57,0.49-1.11,0.73-1.6,0.72c-0.32,0.01-0.62-0.08-0.85-0.32c-0.24-0.22-0.36-0.66-0.38-1.29v-3.94
		c-0.18,0.03-0.41,0.06-0.66,0.1s-0.49,0.07-0.73,0.1s-0.43,0.04-0.59,0.06v0.29l0.43,0.07c0.15,0.01,0.28,0.06,0.35,0.15
		s0.1,0.27,0.1,0.52v3.14c0.01,0.69,0.18,1.19,0.5,1.49s0.74,0.45,1.25,0.44c0.35,0.01,0.71-0.1,1.11-0.34
		c0.38-0.22,0.73-0.48,1.06-0.74v1l0.08,0.08c0.15-0.04,0.35-0.11,0.59-0.18s0.49-0.13,0.76-0.18c0.25-0.06,0.48-0.1,0.69-0.13
		v-0.31l-0.62-0.03c-0.15,0-0.25-0.04-0.31-0.11c-0.07-0.07-0.1-0.24-0.1-0.51v-4.91c-0.28,0.04-0.63,0.1-1.05,0.14
		c-0.43,0.06-0.81,0.1-1.15,0.11v0.29l0.67,0.08c0.15,0.01,0.27,0.06,0.34,0.14c0.07,0.1,0.1,0.27,0.1,0.52V54.45z"/>
	<path d="M119.15,50.46c0.24-0.15,0.57-0.24,1.01-0.25c0.73,0.01,1.29,0.25,1.69,0.72s0.6,1.09,0.62,1.9c0,0.81-0.17,1.46-0.5,1.95
		c-0.35,0.49-0.85,0.73-1.53,0.74c-0.38-0.03-0.66-0.13-0.85-0.28s-0.31-0.28-0.35-0.38c-0.06-0.13-0.08-0.28-0.08-0.48V50.46z
		 M119.15,45.83c-0.28,0.07-0.62,0.15-0.99,0.25c-0.39,0.1-0.76,0.17-1.08,0.24v0.28c0.46,0.01,0.74,0.07,0.85,0.17
		c0.1,0.1,0.14,0.35,0.13,0.74v7.95c0.36,0.18,0.71,0.31,1.06,0.38c0.35,0.08,0.71,0.13,1.09,0.13c0.63-0.01,1.22-0.17,1.74-0.46
		s0.94-0.72,1.26-1.25s0.48-1.15,0.49-1.84c-0.01-0.53-0.14-1.01-0.38-1.45s-0.57-0.77-0.98-1.04c-0.41-0.25-0.87-0.38-1.36-0.39
		c-0.21,0-0.38,0.03-0.53,0.08l-1.3,0.49V45.83z M125.46,54.53c0.01,0.38-0.03,0.62-0.15,0.73s-0.41,0.18-0.87,0.21v0.32h3.14v-0.32
		c-0.46-0.03-0.74-0.1-0.87-0.21s-0.17-0.35-0.15-0.73v-8.7c-0.27,0.07-0.59,0.15-0.98,0.25s-0.76,0.17-1.11,0.24v0.28
		c0.32,0.01,0.55,0.04,0.69,0.08s0.22,0.11,0.27,0.24s0.06,0.32,0.04,0.59V54.53z M129.72,46.22c-0.21,0.01-0.38,0.08-0.5,0.22
		c-0.14,0.14-0.21,0.32-0.22,0.55c0.01,0.21,0.08,0.39,0.22,0.53c0.13,0.14,0.29,0.21,0.5,0.22c0.21-0.01,0.38-0.08,0.52-0.22
		c0.13-0.14,0.2-0.32,0.21-0.53c-0.01-0.22-0.08-0.41-0.21-0.55C130.1,46.31,129.93,46.24,129.72,46.22L129.72,46.22z M130.27,49.51
		c-0.71,0.24-1.4,0.44-2.05,0.56v0.25c0.29,0.03,0.52,0.07,0.66,0.11c0.13,0.04,0.21,0.13,0.25,0.25s0.06,0.34,0.04,0.6v3.24
		c0.01,0.38-0.03,0.62-0.14,0.73c-0.13,0.11-0.41,0.18-0.85,0.21v0.32h3.1v-0.32c-0.45-0.03-0.73-0.1-0.85-0.21
		s-0.17-0.35-0.15-0.73V49.51z M136.96,54.27c-0.35,0.32-0.64,0.53-0.88,0.63c-0.24,0.11-0.49,0.17-0.78,0.15
		c-0.24,0.01-0.53-0.07-0.87-0.22s-0.63-0.44-0.9-0.83c-0.27-0.38-0.41-0.93-0.42-1.63c0.01-0.53,0.11-0.97,0.29-1.29
		s0.39-0.56,0.66-0.72c0.25-0.15,0.49-0.22,0.73-0.22c0.22-0.01,0.46,0.03,0.7,0.11s0.49,0.25,0.76,0.49
		c0.1,0.07,0.17,0.11,0.21,0.1c0.1-0.01,0.21-0.07,0.31-0.2s0.14-0.27,0.15-0.42c0-0.13-0.04-0.24-0.14-0.31
		c-0.17-0.13-0.36-0.22-0.6-0.29c-0.24-0.06-0.45-0.08-0.63-0.08c-0.25-0.01-0.59,0.04-1.01,0.15c-0.42,0.13-0.84,0.35-1.27,0.69
		c-0.39,0.32-0.7,0.7-0.92,1.15S132,52.47,131.99,53c0,0.52,0.13,1.01,0.36,1.45c0.24,0.45,0.56,0.81,0.99,1.08
		c0.43,0.28,0.94,0.42,1.54,0.44c0.41-0.01,0.81-0.15,1.22-0.44c0.39-0.28,0.74-0.65,1.04-1.08L136.96,54.27z M143.41,50.7v-1.99
		c-0.01-0.51,0.01-0.87,0.07-1.11c0.04-0.24,0.15-0.39,0.34-0.46s0.45-0.13,0.8-0.14v-0.32h-3.7V47c0.39,0.01,0.69,0.07,0.88,0.14
		c0.18,0.07,0.31,0.22,0.36,0.46s0.08,0.6,0.07,1.11v5.05c0.01,0.51-0.01,0.87-0.07,1.11s-0.17,0.39-0.35,0.46s-0.46,0.13-0.84,0.14
		v0.32h3.7v-0.32c-0.38-0.01-0.64-0.07-0.83-0.14s-0.31-0.22-0.36-0.46s-0.08-0.6-0.07-1.11v-2.5h4.86v2.5
		c0.01,0.51-0.01,0.87-0.07,1.11s-0.18,0.39-0.38,0.46s-0.49,0.13-0.9,0.14v0.32h3.78v-0.32c-0.38-0.01-0.64-0.07-0.83-0.14
		s-0.31-0.22-0.36-0.46s-0.08-0.6-0.07-1.11v-5.05c-0.01-0.51,0.01-0.87,0.07-1.11s0.18-0.39,0.36-0.46s0.48-0.13,0.85-0.14v-0.32
		h-3.7V47c0.36,0.01,0.63,0.07,0.81,0.14s0.29,0.22,0.35,0.46s0.08,0.6,0.07,1.11v1.99H143.41z"/>
	<path d="M152.77,51.74c0.07-0.52,0.27-0.94,0.56-1.25s0.6-0.46,0.95-0.48c0.36,0.01,0.66,0.15,0.87,0.41s0.31,0.53,0.31,0.83
		c0,0.18-0.01,0.31-0.06,0.36c-0.04,0.07-0.1,0.1-0.2,0.08L152.77,51.74z M156.41,54.39c-0.28,0.25-0.53,0.42-0.76,0.52
		c-0.24,0.1-0.46,0.15-0.69,0.15c-0.35,0-0.7-0.08-1.05-0.27s-0.64-0.48-0.88-0.9c-0.24-0.41-0.35-0.97-0.35-1.66
		c0.59-0.01,1.15-0.04,1.68-0.08c0.53-0.03,0.98-0.06,1.34-0.08c0.35-0.03,0.57-0.06,0.64-0.07c0.13-0.01,0.2-0.06,0.24-0.13
		c0.04-0.06,0.06-0.18,0.06-0.39c0-0.32-0.08-0.63-0.27-0.93s-0.43-0.53-0.73-0.73c-0.31-0.18-0.64-0.28-1.01-0.29
		c-0.57,0.01-1.08,0.17-1.53,0.48c-0.45,0.32-0.8,0.73-1.06,1.25s-0.39,1.11-0.41,1.74c0,0.55,0.11,1.05,0.35,1.49
		c0.22,0.45,0.55,0.8,0.97,1.07s0.92,0.39,1.53,0.41c0.21,0.01,0.5-0.08,0.91-0.28s0.8-0.56,1.2-1.09L156.41,54.39z M160.82,54.65
		c-0.2,0.15-0.41,0.28-0.63,0.38c-0.22,0.11-0.42,0.17-0.59,0.17c-0.22,0-0.43-0.08-0.62-0.27c-0.2-0.18-0.29-0.45-0.31-0.83
		c0-0.25,0.06-0.46,0.18-0.62s0.31-0.31,0.55-0.44c0.1-0.04,0.24-0.11,0.42-0.2s0.36-0.17,0.55-0.25s0.34-0.15,0.45-0.2V54.65z
		 M163,55.28l-0.13-0.31c-0.27,0.13-0.48,0.18-0.6,0.18c-0.11,0-0.21-0.06-0.28-0.18s-0.11-0.31-0.11-0.58v-3.16
		c0.01-0.25-0.01-0.49-0.08-0.73s-0.22-0.45-0.45-0.63c-0.14-0.1-0.31-0.18-0.5-0.25c-0.21-0.06-0.41-0.08-0.6-0.08
		c-0.5,0.1-0.94,0.25-1.32,0.45c-0.38,0.21-0.66,0.38-0.84,0.52c-0.31,0.22-0.46,0.42-0.48,0.6c0.01,0.13,0.08,0.24,0.22,0.34
		c0.13,0.1,0.25,0.14,0.38,0.14c0.17-0.01,0.28-0.1,0.32-0.27c0.07-0.31,0.2-0.58,0.38-0.81c0.17-0.24,0.42-0.35,0.76-0.36
		c0.76,0.01,1.13,0.45,1.15,1.33v0.48c-0.15,0.1-0.35,0.21-0.62,0.32s-0.55,0.22-0.84,0.34c-0.29,0.13-0.56,0.22-0.8,0.32
		c-0.71,0.29-1.08,0.77-1.06,1.42c0,0.27,0.07,0.52,0.21,0.76s0.34,0.45,0.59,0.6c0.24,0.15,0.53,0.24,0.88,0.25
		c0.15-0.01,0.39-0.13,0.71-0.32c0.31-0.18,0.62-0.38,0.92-0.59c0.04,0.18,0.11,0.36,0.24,0.55s0.29,0.31,0.53,0.36L163,55.28z
		 M164.3,54.53c0.01,0.38-0.03,0.62-0.15,0.73s-0.41,0.18-0.87,0.21v0.32h3.14v-0.32c-0.46-0.03-0.74-0.1-0.87-0.21
		s-0.17-0.35-0.15-0.73v-8.7c-0.27,0.07-0.59,0.15-0.98,0.25s-0.76,0.17-1.11,0.24v0.28c0.32,0.01,0.55,0.04,0.69,0.08
		s0.22,0.11,0.27,0.24s0.06,0.32,0.04,0.59V54.53z M168.97,50.24h1.53c0.08-0.08,0.14-0.17,0.15-0.27s0-0.18-0.06-0.27h-1.62v-1.81
		h-0.18l-0.91,0.93v0.88h-0.67l-0.41,0.39l0.06,0.14h1.02v4.03c0.01,1.12,0.48,1.68,1.39,1.7c0.06,0,0.13-0.01,0.2-0.03
		s0.15-0.04,0.22-0.08l1.15-0.58l-0.14-0.31c-0.28,0.17-0.56,0.25-0.83,0.27c-0.21,0.01-0.41-0.06-0.59-0.24
		c-0.2-0.17-0.29-0.52-0.31-1.05V50.24z M173.24,45.83c-0.28,0.07-0.62,0.15-0.99,0.25s-0.74,0.17-1.09,0.24v0.28
		c0.32,0.01,0.55,0.04,0.69,0.08s0.22,0.11,0.27,0.24s0.06,0.32,0.04,0.6v7.01c0.01,0.38-0.03,0.62-0.14,0.73s-0.38,0.18-0.81,0.21
		v0.32h2.97v-0.32c-0.41-0.03-0.67-0.1-0.78-0.21s-0.15-0.35-0.14-0.73v-3.58c0.38-0.41,0.85-0.62,1.44-0.65
		c0.5,0.01,0.87,0.15,1.08,0.45s0.32,0.7,0.31,1.22v2.55c0.01,0.38-0.03,0.62-0.14,0.73s-0.38,0.18-0.81,0.21v0.32h2.97v-0.34
		c-0.41-0.01-0.67-0.08-0.78-0.2s-0.15-0.35-0.14-0.73v-2.98c-0.01-0.63-0.18-1.14-0.52-1.5c-0.34-0.35-0.81-0.53-1.41-0.52
		c-0.38,0.01-0.74,0.13-1.09,0.31s-0.66,0.41-0.9,0.67V45.83z"/>
	<path d="M51.48,25.8c1.56,0,2.4,0.36,3.12,0.84c0.72,0.48,1.2,1.32,1.2,2.4c0,1.92-1.92,2.88-2.88,3.12
		c1.92,0.36,3.72,1.44,3.72,3.72c0,1.56-0.72,2.64-2.04,3.36c-1.08,0.6-2.52,0.84-4.08,0.84h-5.04v-0.6
		c1.8-0.12,2.04-0.24,2.04-2.64v-7.8c-0.12-2.4-0.24-2.52-1.92-2.64v-0.6H51.48z M49.32,32.04h1.32c2.16,0,3.12-0.96,3.12-2.76
		c0-1.32-0.48-2.76-3.12-2.76c-0.72,0-0.96,0-1.2,0.12c-0.12,0-0.12,0.12-0.12,0.6V32.04z M49.32,32.64v4.8
		c0,1.44,0.24,1.92,1.8,1.92c1.92,0,3.48-0.96,3.48-3.24c0-2.4-1.8-3.48-4.08-3.48H49.32z"/>
	<path d="M64.2,36.84c0,2.4,0.24,2.52,2.04,2.64v0.6h-5.88v-0.6c1.92-0.12,2.04-0.24,2.04-2.64v-7.8c0-2.4-0.12-2.52-1.92-2.64
		v-0.48H66c1.44,0,2.64,0.12,3.48,0.72c0.84,0.48,1.44,1.44,1.44,2.76c0,1.8-1.08,3.12-2.88,3.84c0.36,0.6,1.32,2.16,1.92,3.12
		c0.84,1.08,1.32,1.68,1.8,2.4c0.48,0.48,0.96,0.84,1.68,1.08v0.36h-0.36c-2.52,0-3.24-0.84-4.08-2.04
		c-0.72-0.96-1.56-2.52-2.16-3.6c-0.36-0.6-0.72-0.72-1.44-0.72h-1.2V36.84z M64.2,33.12h1.32c0.84,0,1.56-0.12,2.16-0.6
		c0.96-0.72,1.32-1.8,1.32-2.88c0-2.28-1.68-3.12-3.36-3.12c-0.72,0-0.96,0-1.2,0.12c-0.12,0-0.24,0.12-0.24,0.6V33.12z"/>
	<path d="M90.24,32.76c0,4.56-3.24,7.56-7.32,7.56c-4.2,0-7.08-3.12-7.08-7.2c0-3.72,2.52-7.56,7.44-7.56
		C87,25.56,90.24,28.44,90.24,32.76L90.24,32.76z M82.68,26.28c-2.52,0-4.68,2.04-4.68,6.24c0,4.2,2.16,7.08,5.28,7.08
		c2.64,0,4.8-2.04,4.8-6C88.08,28.8,85.8,26.28,82.68,26.28L82.68,26.28z"/>
	<path d="M97.68,26.4h-0.72c-0.96,0.12-1.08,0.36-0.84,1.32l3,9.36l3.48-11.04h0.6l3.96,10.92c0.84-2.76,2.16-7.32,2.52-8.88
		c0.36-1.2,0.24-1.56-0.72-1.68h-0.72v-0.6h4.68v0.6c-1.44,0.12-1.56,0.24-2.28,2.16c-0.24,0.6-1.8,5.64-3.72,11.64h-0.6
		l-3.84-10.68h-0.12L98.88,40.2h-0.6l-3.84-11.76c-0.6-1.8-0.84-1.92-2.16-2.04v-0.6h5.4V26.4z"/>
	<path d="M128.76,40.2h-0.6l-9.48-11.52v5.52c0,2.4,0.12,3.48,0.24,4.2c0,0.72,0.6,1.08,2.04,1.08v0.6h-5.16v-0.6
		c1.2,0,1.68-0.36,1.8-1.08c0.12-0.72,0.24-1.8,0.24-4.2v-4.68c0-1.56,0-1.92-0.48-2.4c-0.36-0.48-0.96-0.72-1.92-0.72v-0.6h3.24
		l9.12,11.04h0.12v-5.16c0-2.28-0.12-3.48-0.24-4.2c-0.12-0.72-0.72-1.08-2.04-1.08v-0.6h5.16v0.6c-1.2,0-1.8,0.36-1.92,1.08
		c0,0.72-0.12,1.92-0.12,4.2V40.2z"/>
	<path class="st0" d="M13.2,8.64c0.12,0.12,0.24,0.36,0.36,0.48c0.24,0.6,0.84,2.76,1.56,3.48c0.36-0.24,0.96-0.6,1.32-0.72
		c-0.12-0.12-0.48-0.72-0.84-1.32c-0.84-1.08-1.44-1.68-1.56-1.8C13.8,8.76,13.44,8.76,13.2,8.64L13.2,8.64z"/>
	<path class="st0" d="M19.44,11.52c0.12-1.08-0.24-3-0.48-3.48c-0.24,0-0.48-0.12-0.72-0.24C18.12,7.92,18,8.76,17.88,9.84
		c0,0.6,0,1.56,0.12,1.68C18.36,11.52,18.96,11.52,19.44,11.52L19.44,11.52z"/>
	<path class="st0" d="M22.44,16.2c-0.36-0.24-0.72-0.36-0.96-0.24v0.12c0.12,0.36-0.24,0.72-0.6,0.72c-0.36,0-0.72-0.24-0.72-0.6
		v-0.12c-0.24,0-0.72,0.12-0.72,0.12c0-0.12-0.24-0.72,0-0.84c0.6-0.24,2.52-0.36,3.12,0.72C22.68,16.2,22.56,16.32,22.44,16.2
		L22.44,16.2z M19.44,18.24c-0.12,0.36-1.44,0.48-1.68,0c0-0.24-0.12-0.72,0-0.6c0.24,0.24,1.32,0.12,1.44,0
		c0.24,0,0.12-0.24,0.24-0.24C19.56,17.4,19.56,17.88,19.44,18.24L19.44,18.24z M17.4,16.08c0,0.36-0.36,0.72-0.72,0.72
		c-0.36,0-0.72-0.36-0.72-0.72l0.12-0.12c-0.12-0.12-0.48-0.24-0.84,0.12c-0.24,0.12-0.6,0-0.12-0.36c0.36-0.36,0.84-0.6,1.2-0.6
		c0.6-0.12,1.44,0.12,1.8,0.24c0.12,0,0,0.84-0.12,0.84C17.88,16.08,17.64,15.96,17.4,16.08L17.4,16.08z M24.72,18.12
		c0-3.36-2.64-6-6-6c-3.36,0-6,2.76-6,6c0,0.24,0,0.48,0.12,0.84c1.68-0.36,3.96-0.36,5.04,0.48c1.68-0.96,3.96-0.96,5.76,0
		c0.36-0.12,0.72-0.24,1.08-0.36C24.72,18.72,24.72,18.36,24.72,18.12L24.72,18.12z"/>
	<path class="st0" d="M22.8,8.64c-0.72,0.6-1.8,2.04-1.92,3.24c0.36,0.12,1.2,0.48,1.32,0.6c0.84-0.84,0.72-1.8,0.96-2.52
		c0.24-0.36,0.36-0.6,0.48-0.72C23.28,9.12,23.04,8.88,22.8,8.64L22.8,8.64z"/>
	<path class="st0" d="M27,10.92c-0.12,0.12-0.48,0.36-0.6,0.36c-0.84,0.72-2.64,1.56-3.12,2.04c0.36,0.24,0.84,0.72,1.08,1.2
		c0.24,0,0.72-0.48,1.92-1.8c0.36-0.48,0.72-0.72,1.44-1.08C27.48,11.4,27.24,11.16,27,10.92L27,10.92z"/>
	<path class="st0" d="M12.36,15.96c-0.36-0.36-1.2-0.72-2.16-0.6c-2.04,0.12-3.48,0-4.2-0.12c-1.32-0.24-2.16,0-2.88,0
		c-2.04,0,0,0.24,0.24,0.24c0.96,0.48,3,0.96,4.44,0.84c0.84-0.12,2.04,0.36,2.28,0.48c0.48,0.12,1.56,0.48,2.04,0.48
		C12.12,17.04,12.24,16.32,12.36,15.96L12.36,15.96z"/>
	<path class="st0" d="M14.04,13.44c-1.08-0.84-2.04-1.08-3.48-1.8c-0.36-0.12-0.96-0.48-0.96-0.48c-0.12-0.12-0.12-0.12-0.24-0.24
		c-0.12,0.36-0.24,0.72-0.48,0.96c0.24,0.24,1.92,2.28,4.2,2.88C13.32,14.28,13.68,13.8,14.04,13.44L14.04,13.44z"/>
	<path class="st0" d="M36,14.88c-0.12,0-0.48,0-0.72,0c-0.36,0-2.52,0-3.12,0.12c-1.2,0.12-3.48,0-4.8,0c-0.96,0-2.04,0.36-2.4,0.48
		c0,0,0.36,0.96,0.36,1.56c0.48,0.12,0.84-0.36,1.92-0.36c1.32,0,4.32-0.12,5.76-0.72c1.2-0.48,2.04-0.72,2.88-0.84
		C36.12,15.12,36.48,15,36,14.88L36,14.88z"/>
	<path class="st0" d="M8.28,6.6c0.24-0.96,1.2-2.52,3.48-1.92C12,4.8,11.88,5.52,11.52,5.4C9.96,4.68,9.12,6,8.76,6.96
		C8.76,7.08,8.16,7.08,8.28,6.6L8.28,6.6z M7.44,7.92C6.48,8.04,6.24,8.4,6.12,9C6,9.24,5.52,9,5.52,8.64
		c0.24-1.2,1.56-1.44,2.04-1.32C7.68,7.32,7.68,7.92,7.44,7.92L7.44,7.92z M4.8,9.96c-0.6,0-1.08,0-1.56,0.48
		c-0.48,0.6-0.36,0.84-0.48,0.96c-0.12,0.12-0.48-0.12-0.48-0.36c0-1.2,1.56-1.68,2.4-1.68C5.04,9.48,5.16,9.96,4.8,9.96L4.8,9.96z
		 M13.92,3.84c0.6-0.96,2.52-2.28,4.2-0.72c0.12,0.12,0,0.72-0.24,0.6c-1.56-1.08-2.76-0.24-3.48,0.6
		C14.16,4.68,13.8,4.08,13.92,3.84L13.92,3.84z M19.08,3.6c0.6-0.96,3.72-1.8,5.4,0.96c0.12,0.24-0.12,0.48-0.24,0.6
		C24,5.28,24,5.04,23.88,4.92c-1.32-2.16-3.84-1.68-4.56-0.6C19.2,4.56,18.84,3.96,19.08,3.6L19.08,3.6z M25.92,5.28
		c0.84-0.36,2.28-0.48,2.64,0.96c0.12,0.36-0.36,0.6-0.48,0.24C27.72,5.52,27,5.52,26.04,5.76C25.68,6,25.8,5.28,25.92,5.28
		L25.92,5.28z M29.76,7.08c0.96-0.48,2.76-0.36,3.36,1.32c0.12,0.24-0.24,0.72-0.48,0.24c-0.72-1.2-1.8-1.2-2.76-0.84
		C29.64,7.92,29.4,7.32,29.76,7.08L29.76,7.08z M33.72,9c0.96-0.24,2.04,0.48,1.8,1.68c-0.12,0.24-0.6,0.24-0.6,0
		c0.12-0.96-0.48-1.08-1.08-1.08C33.48,9.6,33.6,9,33.72,9L33.72,9z M9,8.88c0-0.12,0.12-0.12,0.36,0c0.96,0.36,2.4,0.12,3.12-0.96
		c0.12-0.24,0.24-0.24,0.48-0.12c0.72,0.24,2.16,0.36,3.84-1.44c0.24-0.12,0.36-0.12,0.6,0c1.44,1.2,3.12,1.32,4.8,0.24
		c0-0.12,0.24-0.12,0.24-0.12c0.12,0,0.24,0.12,0.24,0.24c0.6,2.4,3.12,2.28,3.84,2.16c0.12,0,0.24,0,0.24,0C26.88,9,27,9,27,9.12
		c0,0.6,0.72,1.68,1.8,2.28c0.84,0.48,1.92,0.36,3-0.12c0.12-0.12,0.24-0.12,0.36,0C33.48,12,34.68,12,35.52,11.4
		C36,10.92,36.24,10.2,36,9.48c-0.24-0.72-0.96-1.2-1.92-1.2c-0.24,0-0.36-0.12-0.36-0.36c-0.12-0.6-0.48-1.08-0.96-1.32
		c-0.84-0.48-2.04-0.6-3.24-0.24c0,0.12-0.12,0.12-0.24,0c-0.12,0-0.12-0.12-0.24-0.24c0-0.48-0.24-1.08-0.72-1.44
		c-0.6-0.36-1.56-0.36-2.64,0c-0.24,0.12-0.36,0-0.48-0.12c-0.72-1.44-1.68-2.28-2.88-2.64c-1.08-0.24-2.28,0-3.24,0.6
		c-0.12,0.12-0.36,0.12-0.48,0c-0.96-0.72-2.16-0.96-3.24-0.72c-1.08,0.36-1.92,1.2-2.28,2.4c0,0.12-0.12,0.12-0.24,0.24
		c-0.12,0-0.12,0-0.24,0c-1.68-0.72-3-0.72-3.84,0C7.92,5.04,7.8,6,7.8,6.24c0,0.12-0.12,0.36-0.24,0.36L7.08,6.72
		c-0.84,0.24-1.8,0.48-2.04,1.8C4.92,8.76,4.8,8.88,4.68,8.88C3.12,9,2.04,9.6,1.92,10.44c-0.24,0.6,0.12,1.32,0.6,1.68
		c0.6,0.36,1.2,0.36,1.92-0.12c0,0,0.24-0.12,0.36,0c0.84,0.36,2.4,0.24,3.24-0.48C8.76,11.04,9,10.2,8.88,9.24
		C8.76,9.12,8.88,9,9,8.88L9,8.88z"/>
	<path class="st0" d="M3.6,19.2c-1.08,0-2.04,0.36-2.4,0.96c-0.6,0.96,0.12,1.92,0.6,2.16c0.96,0.6,1.92,0.24,1.92-0.12
		C3.48,21.84,3,21.24,2.76,21.24c-0.36,0-0.36-0.48-0.12-0.6c0.72-0.24,1.32,0.96,2.28,1.68c0.84,0.6,1.92,0.12,1.92-0.12
		C6.36,21.72,5.76,19.32,3.6,19.2L3.6,19.2z"/>
	<path class="st0" d="M25.68,22.2c0.84,0.72,1.8,0.36,1.92,0.12c-0.12-0.12-0.6-0.84-0.84-0.96s-0.36-0.36-0.24-0.6s0.6,0,0.84,0.24
		c0.24,0.36,0.96,1.32,1.32,1.44c0.6,0.36,2.16,0.24,2.04-0.12c-0.48-0.72-0.72-2.04-1.92-2.64c-1.32-0.6-3-0.36-4.44,0.12
		C24.6,20.4,25.32,21.72,25.68,22.2L25.68,22.2z"/>
	<path class="st0" d="M16.8,19.68c-1.32-0.6-3.12-0.36-4.56,0.12c0.36,0.6,1.08,1.92,1.44,2.28c0.72,0.84,1.92,0.48,1.92,0.24
		s-0.72-0.96-0.96-1.2c-0.24-0.12-0.36-0.24-0.24-0.48c0.24-0.24,0.72,0,0.96,0.36c0.36,0.36,1.08,1.2,1.32,1.44
		c0.72,0.48,2.16,0.24,2.04-0.24C18.24,21.6,18,20.28,16.8,19.68L16.8,19.68z"/>
	<path class="st0" d="M7.32,29.4c-0.96,0-1.8,0.36-2.4,0.36v6c0,0,0.36,0.24,1.32,0c1.08-0.36,1.68,0,1.68,0v-6.12
		C7.92,29.64,7.8,29.4,7.32,29.4L7.32,29.4z"/>
	<path class="st0" d="M10.56,54.72c0.84,0.24,1.2,0,1.2,0v-6c-0.48,0-1.44-0.36-2.28-0.36c-0.48,0-0.72,0.24-0.72,0.24v6.12
		C8.76,54.72,9.36,54.36,10.56,54.72L10.56,54.72z"/>
	<path class="st0" d="M30.24,29.4c-0.48,0-0.72,0.24-0.72,0.24v6.12c0,0,0.6-0.36,1.8,0c0.84,0.24,1.2,0,1.2,0v-6
		C32.04,29.76,31.08,29.4,30.24,29.4L30.24,29.4z"/>
	<path class="st0" d="M9.48,29.4c-0.48,0-0.72,0.24-0.72,0.24v6.12c0,0,0.6-0.36,1.8,0c0.84,0.24,1.2,0,1.2,0v-6
		C11.28,29.76,10.32,29.4,9.48,29.4L9.48,29.4z"/>
	<path class="st0" d="M7.92,54.72V48.6c0,0-0.12-0.24-0.6-0.24c-0.96,0-1.8,0.36-2.4,0.36v6c0,0,0.36,0.24,1.32,0
		C7.32,54.36,7.92,54.72,7.92,54.72L7.92,54.72z"/>
	<path class="st0" d="M29.64,48.6v6.12c0,0,0.6-0.36,1.8,0c0.84,0.24,1.2,0,1.2,0v-6c-0.48,0-1.44-0.36-2.28-0.36
		C29.88,48.36,29.64,48.6,29.64,48.6L29.64,48.6z"/>
	<path class="st0" d="M28.08,29.4c-0.96,0-1.8,0.36-2.4,0.36v6c0,0,0.36,0.24,1.32,0c1.08-0.36,1.68,0,1.68,0v-6.12
		C28.68,29.64,28.56,29.4,28.08,29.4L28.08,29.4z"/>
	<path class="st0" d="M25.8,48.72v6c0,0,0.36,0.24,1.32,0c1.08-0.36,1.68,0,1.68,0V48.6c0,0-0.12-0.24-0.6-0.24
		C27.24,48.36,26.4,48.72,25.8,48.72L25.8,48.72z"/>
	<path class="st0" d="M34.2,37.2h-4.08v0.48h-1.8V37.2h-4.08v-7.08h0.84v-1.2c0.96,0.24,2.4-0.24,3-0.24c0.84,0,1.2,0.24,1.2,0.24
		s0.36-0.24,1.08-0.24c0.6,0,2.16,0.48,3,0.24v1.2h0.84V37.2z M36.36,26.76h-14.4v13.08h14.4V26.76z"/>
	<path class="st0" d="M13.32,37.2H9.24v0.48h-1.8V37.2H3.36v-7.08H4.2v-1.2c0.96,0.24,2.4-0.24,3-0.24c0.84,0,1.2,0.24,1.2,0.24
		s0.36-0.24,1.08-0.24c0.6,0,2.16,0.48,3,0.24v1.2h0.84V37.2z M15.6,26.76H1.08v13.08H15.6V26.76z"/>
	<path class="st0" d="M21.96,63.36c3.6-0.96,7.2-2.4,9.72-4.68c0.84-0.84,1.56-1.56,2.16-2.52h-3.72v0.48h-1.8v-0.48h-4.08v-7.08
		h0.84v-1.2c0.96,0.24,2.4-0.24,3-0.24c0.84,0,1.2,0.24,1.2,0.24s0.36-0.24,1.08-0.24c0.6,0,2.16,0.48,3,0.24v1.2h0.84v6.36
		c1.44-2.28,2.04-5.04,2.28-9.12l-0.12-0.48h-14.4V63.36z"/>
	<path class="st0" d="M3.36,55.44v-6.36H4.2v-1.2c0.96,0.24,2.4-0.24,3-0.24c0.84,0,1.2,0.24,1.2,0.24s0.36-0.24,1.08-0.24
		c0.6,0,2.16,0.48,3,0.24v1.2h0.84v7.08H9.24v0.48h-1.8v-0.48h-3.6c0.6,0.84,1.2,1.68,2.04,2.52c2.28,2.16,6,3.6,9.72,4.68V45.84
		H1.08v0.48C1.2,49.92,1.92,52.92,3.36,55.44L3.36,55.44z"/>
	<g>
		<defs>
			<rect id="SVGID_1_" width="181.11" height="65.4"/>
		</defs>
		<clipPath id="SVGID_2_">
			<use xlink:href="#SVGID_1_"  style="overflow:visible;"/>
		</clipPath>
		<path class="st1" d="M35.88,15.12c-0.84,0.12-1.68,0.36-2.88,0.84c-1.44,0.6-4.44,0.72-5.76,0.72c-1.08,0-1.44,0.48-1.92,0.36
			c0-0.6-0.36-1.56-0.36-1.56c0.36-0.12,1.44-0.48,2.4-0.48c1.32,0,3.6,0.12,4.8,0c0.6-0.12,2.76-0.12,3.12-0.12
			c0.24,0,0.6,0,0.72,0C36.48,15,36.12,15.12,35.88,15.12L35.88,15.12z M28.8,19.68c1.2,0.6,1.44,1.92,1.92,2.64
			c0.12,0.36-1.44,0.48-2.04,0.12c-0.36-0.12-1.08-1.08-1.32-1.44c-0.24-0.24-0.72-0.48-0.84-0.24s0,0.48,0.24,0.6
			s0.72,0.84,0.84,0.96c-0.12,0.24-1.08,0.6-1.92-0.12c-0.36-0.48-1.08-1.8-1.32-2.4C25.8,19.32,27.48,19.08,28.8,19.68L28.8,19.68z
			 M33.24,19.32c2.64,0.24,3.24,1.92,3,2.52c-0.24,0.48-1.8,1.2-4.32,0.48c-0.72-0.36-1.44-2.28-1.68-2.52
			C30.12,19.68,31.68,19.2,33.24,19.32L33.24,19.32z M20.04,22.44c-0.84-0.36-1.44-2.28-1.68-2.52c-0.12-0.12,1.44-0.6,3-0.48
			c2.64,0.24,2.64,1.8,3.24,2.64C24.84,22.44,22.44,23.04,20.04,22.44L20.04,22.44z M16.68,22.44c-0.24-0.24-0.96-1.08-1.32-1.44
			c-0.24-0.36-0.72-0.6-0.96-0.36c-0.12,0.24,0,0.36,0.24,0.48c0.24,0.24,0.96,0.96,0.96,1.2s-1.2,0.6-1.92-0.24
			c-0.36-0.36-1.08-1.68-1.44-2.28c1.44-0.48,3.24-0.72,4.56-0.12c1.2,0.6,1.44,1.92,1.92,2.52C18.84,22.68,17.4,22.92,16.68,22.44
			L16.68,22.44z M8.04,22.2c-0.84-0.36-1.44-2.16-1.68-2.4c-0.12-0.12,1.44-0.72,3-0.48c2.64,0.12,2.64,1.8,3.24,2.64
			C12.84,22.32,10.44,22.92,8.04,22.2L8.04,22.2z M4.92,22.32c-0.96-0.72-1.56-1.92-2.28-1.68c-0.24,0.12-0.24,0.6,0.12,0.6
			c0.24,0,0.72,0.6,0.96,0.96c0,0.36-0.96,0.72-1.92,0.12c-0.48-0.24-1.2-1.2-0.6-2.16c0.36-0.6,1.32-0.96,2.4-0.96
			c2.16,0.12,2.76,2.52,3.24,3C6.84,22.44,5.76,22.92,4.92,22.32L4.92,22.32z M10.08,16.8c-0.24-0.12-1.44-0.6-2.28-0.48
			c-1.44,0.12-3.48-0.36-4.44-0.84c-0.24,0-2.28-0.24-0.24-0.24c0.72,0,1.56-0.24,2.88,0c0.72,0.12,2.16,0.24,4.2,0.12
			c0.96-0.12,1.8,0.24,2.16,0.6c-0.12,0.36-0.24,1.08-0.24,1.32C11.64,17.28,10.56,16.92,10.08,16.8L10.08,16.8z M8.88,11.88
			c0.24-0.24,0.36-0.6,0.48-0.96c0.12,0.12,0.12,0.12,0.24,0.24c0,0,0.6,0.36,0.96,0.48c1.44,0.72,2.4,0.96,3.48,1.8
			c-0.36,0.36-0.72,0.84-0.96,1.32C10.8,14.16,9.12,12.12,8.88,11.88L8.88,11.88z M8.04,11.52C7.2,12.24,5.64,12.36,4.8,12
			c-0.12-0.12-0.36,0-0.36,0c-0.6,0.48-1.32,0.48-1.92,0.12c-0.48-0.36-0.84-1.08-0.6-1.68C2.04,9.6,3.12,9,4.68,8.88
			c0.12,0,0.24-0.12,0.36-0.36c0.24-1.32,1.2-1.56,2.04-1.8L7.56,6.6c0.12,0,0.24-0.24,0.24-0.36c0-0.24,0.12-1.2,0.96-1.8
			c0.84-0.72,2.16-0.72,3.84,0c0.12,0,0.12,0,0.24,0c0.12-0.12,0.24-0.12,0.24-0.24c0.36-1.2,1.2-2.04,2.28-2.4
			c1.08-0.24,2.28,0,3.24,0.72c0.12,0.12,0.36,0.12,0.48,0c0.96-0.6,2.16-0.84,3.24-0.6c1.2,0.36,2.16,1.2,2.88,2.64
			c0.12,0.12,0.24,0.24,0.48,0.12c1.08-0.36,2.04-0.36,2.64,0c0.48,0.36,0.72,0.96,0.72,1.44c0.12,0.12,0.12,0.24,0.24,0.24
			c0.12,0.12,0.24,0.12,0.24,0c1.2-0.36,2.4-0.24,3.24,0.24c0.48,0.24,0.84,0.72,0.96,1.32c0,0.24,0.12,0.36,0.36,0.36
			c0.96,0,1.68,0.48,1.92,1.2c0.24,0.72,0,1.44-0.48,1.92c-0.84,0.6-2.04,0.6-3.36-0.12c-0.12-0.12-0.24-0.12-0.36,0
			c-1.08,0.48-2.16,0.6-3,0.12C27.72,10.8,27,9.72,27,9.12C27,9,26.88,9,26.76,8.88c0,0-0.12,0-0.24,0C25.8,9,23.28,9.12,22.68,6.72
			c0-0.12-0.12-0.24-0.24-0.24c0,0-0.24,0-0.24,0.12c-1.68,1.08-3.24,0.96-4.8-0.24c-0.24-0.12-0.36-0.12-0.6,0
			c-1.68,1.8-3.12,1.68-3.84,1.44c-0.24-0.12-0.36-0.12-0.48,0.12C11.76,9,10.32,9.24,9.36,8.88C9.24,8.76,9,8.76,9,8.88
			C8.88,9,8.76,9.12,8.88,9.24C9,10.2,8.76,11.04,8.04,11.52L8.04,11.52z M20.4,10.56c-0.12,0.48-0.24,0.72-0.24,0.96
			c0.12-0.96-0.12-2.28-0.36-3.36c0.72,0,1.56-0.24,2.28-0.72c0.12,0.24,0.24,0.36,0.24,0.48C21.96,8.4,20.88,9.6,20.4,10.56
			L20.4,10.56z M24.12,9.72c0,0,0.12-0.12,0.12-0.24c0.6,0.24,1.32,0.36,2.04,0.24c0.12,0.24,0.24,0.48,0.36,0.72l0,0
			c-0.36,0.24-1.44,0.96-3,1.8c-0.36,0.12-0.6,0.36-0.72,0.48c0.12-0.12,0.36-0.48,0.48-0.84C23.64,11.28,23.64,10.68,24.12,9.72
			L24.12,9.72z M23.16,9.96c-0.24,0.72-0.12,1.68-0.96,2.52c-0.12-0.12-0.96-0.48-1.32-0.6c0.12-1.2,1.2-2.64,1.92-3.24
			c0.24,0.24,0.48,0.48,0.84,0.6C23.52,9.36,23.4,9.6,23.16,9.96L23.16,9.96z M17.88,9.84C18,8.76,18.12,7.92,18.24,7.8
			c0.24,0.12,0.48,0.24,0.72,0.24c0.24,0.48,0.6,2.4,0.48,3.48c-0.48,0-1.08,0-1.44,0C17.88,11.4,17.88,10.44,17.88,9.84L17.88,9.84
			z M18.72,12.12c3.36,0,6,2.64,6,6c0,0.24,0,0.6,0,0.96c-0.36,0.12-0.72,0.24-1.08,0.36c-1.8-0.96-4.08-0.96-5.76,0
			c-1.08-0.84-3.36-0.84-5.04-0.48c-0.12-0.36-0.12-0.6-0.12-0.84C12.72,14.88,15.36,12.12,18.72,12.12L18.72,12.12z M15.6,10.56
			c0.36,0.6,0.72,1.2,0.84,1.32c-0.36,0.12-0.96,0.48-1.32,0.72c-0.72-0.72-1.32-2.88-1.56-3.48C13.44,9,13.32,8.76,13.2,8.64
			c0.24,0.12,0.6,0.12,0.84,0.12C14.16,8.88,14.76,9.48,15.6,10.56L15.6,10.56z M17.04,11.52l0.12,0.12c0,0-0.6-0.84-0.6-0.96
			c-0.24-0.24-0.48-0.6-0.72-0.84c-0.48-0.6-0.84-0.96-1.08-1.32c0.72-0.12,1.44-0.48,2.4-1.32c0,0,0.12,0.12,0.24,0.12
			c0,0.36-0.12,0.6-0.12,0.72c-0.24,1.08-0.24,1.92-0.24,2.28S17.04,11.28,17.04,11.52L17.04,11.52z M9.6,9.72
			c0.96,0.12,2.04,0,2.88-0.84c1.08,1.68,1.08,3.12,2.04,4.2c-1.2-1.2-2.28-1.2-4.08-2.16c-0.36-0.24-0.72-0.48-0.96-0.6l0,0
			C9.6,10.2,9.6,10.08,9.6,9.84C9.6,9.84,9.6,9.84,9.6,9.72L9.6,9.72z M26.28,12.72c-1.2,1.32-1.68,1.8-1.92,1.8
			c-0.24-0.48-0.72-0.96-1.08-1.2c0.48-0.48,2.28-1.32,3.12-2.04c0.12,0,0.48-0.24,0.6-0.36c0.24,0.24,0.48,0.48,0.72,0.72
			C27,12,26.64,12.24,26.28,12.72L26.28,12.72z M38.04,14.52c-0.24-0.12-2.52-0.36-2.88-0.36c-0.36,0-2.4,0-3.12,0.12
			c-1.2,0.12-3.24,0.12-4.8,0c-0.6-0.12-1.2,0-1.68,0.24c0.12-0.12,0.12-0.24,0.24-0.36c0.48-0.48,1.08-1.32,1.92-1.8
			c0.24-0.12,0.48-0.24,0.72-0.36c0.72,0.36,1.92,0.6,3.48,0c2.16,1.08,3.48,0.36,3.96-0.12c0.6-0.48,0.96-1.2,0.96-1.92
			c0-0.24-0.12-0.48-0.12-0.72c-0.36-0.96-1.2-1.56-2.52-1.68c0-0.36-0.12-0.6-0.24-0.72c0.12-0.24,0.24-0.36,0.36-0.48
			s0.48-0.72-0.48-0.24c-0.12,0-0.24,0-0.36,0.12C33.36,6.12,33.24,6,33.12,5.88c-0.96-0.6-2.16-0.6-3.48-0.24
			c-0.24-0.72-0.48-1.32-1.08-1.68c-0.48-0.24-1.2-0.36-2.04-0.24c0-0.12,0.12-0.24,0.12-0.36C27,2.64,26.76,2.4,26.4,2.76
			c-0.48,0.36-0.72,0.6-0.96,0.84c-0.72-1.2-1.8-2.04-3-2.4c-1.08-0.24-2.28-0.12-3.24,0.36c-0.12-0.48-0.12-0.96-0.24-1.2
			c-0.24-0.6-0.48-0.12-0.48,0.12s-0.12,0.6-0.12,0.96C17.28,0.96,16.08,0.72,15,1.08c-1.08,0.36-2.04,1.2-2.52,2.52
			c-0.48-0.24-0.84-0.24-1.2-0.36c-0.24-0.24-0.6-0.6-0.96-1.08c-0.36-0.24-0.6-0.12-0.36,0.48c0,0.12,0.12,0.36,0.12,0.48
			c-0.84,0.12-1.44,0.36-1.8,0.72c-0.84,0.6-1.2,1.56-1.32,2.04C6.96,6,6.84,6,6.84,6c-0.6,0.12-1.56,0.36-2.16,1.32
			C4.56,7.2,4.56,7.2,4.44,7.2C2.76,6,3.6,7.44,4.2,8.16c-2.28,0.36-3,1.44-3.12,2.04c0,0.24,0,0.36,0,0.6
			c0,0.72,0.36,1.44,0.96,1.92c0.84,0.48,1.68,0.48,2.52-0.12c1.08,0.36,2.64,0.36,3.72-0.48c0.72,0.72,1.2,1.2,1.44,1.44
			c0.72,0.72,1.8,1.2,2.28,1.44c-0.48-0.24-1.44-0.36-2.28-0.24c-1.8,0.24-3-0.12-3.84-0.24c-1.32-0.12-2.64,0.12-3.24,0.12
			c-0.72,0-1.8,0.36-2.28,0.36c-0.48,0.12-0.48,0.48,0.24,0.72c0.72,0.12,2.16,0.24,2.52,0.36c1.2,0.6,3.12,0.96,4.56,0.84
			c0.96,0,1.92,0.48,2.16,0.48c0.48,0.24,1.68,0.48,2.28,0.48c0,0,0,0.72,0,1.08c-0.24,0.12-0.36,0.12-0.48,0.24
			c-0.6-0.36-3-1.32-6-0.12c-0.6-0.24-1.92-0.96-3.72-0.36c-2.28,0.72-1.92,2.76-1.08,3.72C1.8,23.64,3.6,23.4,4.2,22.8
			c1.2,0.84,2.4,0.48,3.24,0c0.6,0.36,3.48,0.84,5.64,0c0.36,0.24,1.56,0.84,3,0.12c0.96,0.48,2.4,0.48,3.12-0.12
			c0.36,0.24,1.08,0.6,2.88,0.48c2.04,0,2.52-0.24,2.88-0.6c0.48,0.24,1.56,0.84,3,0.24c0.84,0.48,2.4,0.48,3.24-0.12
			c1.56,0.72,4.32,0.48,5.04,0c1.32-0.96,0.72-2.76-0.72-3.6c-2.76-1.32-5.28-0.24-5.88,0.12c-0.84-0.6-2.52-0.96-4.32-0.6
			c0-0.24,0-0.48,0-0.72v-0.12c0.36-0.12,0.84-0.48,1.92-0.48c1.32-0.12,4.56-0.12,6.12-0.96c0.96-0.36,4.08-1.08,4.56-1.32
			C38.4,14.88,38.28,14.76,38.04,14.52L38.04,14.52z"/>
	</g>
	<path d="M4.8,9.96c-0.6,0-1.08,0-1.56,0.48c-0.48,0.6-0.36,0.84-0.48,0.96c-0.12,0.12-0.48-0.12-0.48-0.36
		c0-1.2,1.56-1.68,2.4-1.68C5.04,9.48,5.16,9.96,4.8,9.96L4.8,9.96z"/>
	<path d="M7.44,7.92C6.48,8.04,6.24,8.4,6.12,9C6,9.24,5.52,9,5.52,8.64c0.24-1.2,1.56-1.44,2.04-1.32
		C7.68,7.32,7.68,7.92,7.44,7.92L7.44,7.92z"/>
	<path d="M11.52,5.4C9.96,4.68,9.12,6,8.76,6.96c0,0.12-0.6,0.12-0.48-0.36c0.24-0.96,1.2-2.52,3.48-1.92
		C12,4.8,11.88,5.52,11.52,5.4L11.52,5.4z"/>
	<path d="M17.88,3.72c-1.56-1.08-2.76-0.24-3.48,0.6c-0.24,0.36-0.6-0.24-0.48-0.48c0.6-0.96,2.52-2.28,4.2-0.72
		C18.24,3.24,18.12,3.84,17.88,3.72L17.88,3.72z"/>
	<path d="M24.24,5.16C24.12,5.28,24,5.04,23.88,4.92c-1.32-2.16-3.84-1.68-4.56-0.6c-0.12,0.24-0.48-0.36-0.24-0.72
		c0.6-0.96,3.72-1.8,5.4,0.96C24.6,4.8,24.36,5.04,24.24,5.16L24.24,5.16z"/>
	<path d="M28.08,6.48C27.72,5.52,27,5.52,26.04,5.76C25.68,6,25.8,5.28,25.92,5.28c0.84-0.36,2.28-0.48,2.64,0.96
		C28.68,6.6,28.2,6.84,28.08,6.48L28.08,6.48z"/>
	<path d="M32.64,8.64c-0.72-1.2-1.8-1.2-2.76-0.84c-0.24,0.12-0.48-0.48-0.12-0.72c0.96-0.48,2.76-0.36,3.36,1.32
		C33.24,8.64,32.88,9.12,32.64,8.64L32.64,8.64z"/>
	<path d="M35.52,10.68c-0.12,0.24-0.6,0.24-0.6,0c0.12-0.96-0.48-1.08-1.08-1.08C33.48,9.6,33.6,9,33.72,9
		C34.68,8.76,35.76,9.48,35.52,10.68L35.52,10.68z"/>
	<path d="M17.4,16.08c0,0.36-0.36,0.72-0.72,0.72c-0.36,0-0.72-0.36-0.72-0.72l0.12-0.12c-0.12-0.12-0.48-0.24-0.84,0.12
		c-0.24,0.12-0.6,0-0.12-0.36c0.36-0.36,0.84-0.6,1.2-0.6c0.6-0.12,1.44,0.12,1.8,0.24c0.12,0,0,0.84-0.12,0.84
		C17.88,16.08,17.64,15.96,17.4,16.08L17.4,16.08z"/>
	<path d="M19.44,18.24c-0.12,0.36-1.44,0.48-1.68,0c0-0.24-0.12-0.72,0-0.6c0.24,0.24,1.32,0.12,1.44,0c0.24,0,0.12-0.24,0.24-0.24
		C19.56,17.4,19.56,17.88,19.44,18.24L19.44,18.24z"/>
	<path d="M22.44,16.2c-0.36-0.24-0.72-0.36-0.96-0.24v0.12c0.12,0.36-0.24,0.72-0.6,0.72c-0.36,0-0.72-0.24-0.72-0.6v-0.12
		c-0.24,0-0.72,0.12-0.72,0.12c0-0.12-0.24-0.72,0-0.84c0.6-0.24,2.52-0.36,3.12,0.72C22.68,16.2,22.56,16.32,22.44,16.2L22.44,16.2
		z"/>
	<path d="M0.12,25.8v19.56c0,6.36,1.68,10.8,5.16,13.92c3.36,3.12,8.52,4.68,13.44,5.88c5.16-1.2,10.08-2.64,13.56-5.88
		c3.48-3.12,5.04-7.56,5.04-13.92V25.8H0.12z M28.8,48.6v6.12c0,0-0.6-0.36-1.68,0c-0.96,0.24-1.32,0-1.32,0v-6
		c0.6,0,1.44-0.36,2.4-0.36C28.68,48.36,28.8,48.6,28.8,48.6L28.8,48.6z M32.64,48.72v6c0,0-0.36,0.24-1.2,0c-1.2-0.36-1.8,0-1.8,0
		V48.6c0,0,0.24-0.24,0.72-0.24C31.2,48.36,32.16,48.72,32.64,48.72L32.64,48.72z M34.2,55.44v-6.36h-0.84v-1.2
		c-0.84,0.24-2.4-0.24-3-0.24c-0.72,0-1.08,0.24-1.08,0.24s-0.36-0.24-1.2-0.24c-0.6,0-2.04,0.48-3,0.24v1.2h-0.84v7.08h4.08v0.48
		h1.8v-0.48h3.72c-0.6,0.96-1.32,1.68-2.16,2.52c-2.52,2.28-6.12,3.72-9.72,4.68V45.84h14.4l0.12,0.48
		C36.24,50.4,35.64,53.16,34.2,55.44L34.2,55.44z M21.12,63.6l-2.4,0.6l-2.4-0.6V45H1.08v-4.32h15.24V26.76h4.8v13.92h15.24V45
		H21.12V63.6z M8.76,54.72V48.6c0,0,0.24-0.24,0.72-0.24c0.84,0,1.8,0.36,2.28,0.36v6c0,0-0.36,0.24-1.2,0
		C9.36,54.36,8.76,54.72,8.76,54.72L8.76,54.72z M4.92,54.72v-6c0.6,0,1.44-0.36,2.4-0.36c0.48,0,0.6,0.24,0.6,0.24v6.12
		c0,0-0.6-0.36-1.68,0C5.28,54.96,4.92,54.72,4.92,54.72L4.92,54.72z M15.6,63.36c-3.72-1.08-7.44-2.52-9.72-4.68
		C5.04,57.84,4.44,57,3.84,56.16h3.6v0.48h1.8v-0.48h4.08v-7.08h-0.84v-1.2c-0.84,0.24-2.4-0.24-3-0.24c-0.72,0-1.08,0.24-1.08,0.24
		s-0.36-0.24-1.2-0.24c-0.6,0-2.04,0.48-3,0.24v1.2H3.36v6.36c-1.44-2.52-2.16-5.52-2.28-9.12v-0.48H15.6V63.36z M1.08,26.76H15.6
		v13.08H1.08V26.76z M21.96,26.76h14.4v13.08h-14.4V26.76z"/>
	<path d="M11.76,35.76c0,0-0.36,0.24-1.2,0c-1.2-0.36-1.8,0-1.8,0v-6.12c0,0,0.24-0.24,0.72-0.24c0.84,0,1.8,0.36,2.28,0.36V35.76z
		 M7.92,35.76c0,0-0.6-0.36-1.68,0c-0.96,0.24-1.32,0-1.32,0v-6c0.6,0,1.44-0.36,2.4-0.36c0.48,0,0.6,0.24,0.6,0.24V35.76z
		 M12.48,30.12v-1.2c-0.84,0.24-2.4-0.24-3-0.24c-0.72,0-1.08,0.24-1.08,0.24s-0.36-0.24-1.2-0.24c-0.6,0-2.04,0.48-3,0.24v1.2H3.36
		v7.08h4.08v0.48h1.8V37.2h4.08v-7.08H12.48z"/>
	<path d="M32.52,35.76c0,0-0.36,0.24-1.2,0c-1.2-0.36-1.8,0-1.8,0v-6.12c0,0,0.24-0.24,0.72-0.24c0.84,0,1.8,0.36,2.28,0.36V35.76z
		 M28.68,35.76c0,0-0.6-0.36-1.68,0c-0.96,0.24-1.32,0-1.32,0v-6c0.6,0,1.44-0.36,2.4-0.36c0.48,0,0.6,0.24,0.6,0.24V35.76z
		 M33.36,30.12v-1.2c-0.84,0.24-2.4-0.24-3-0.24c-0.72,0-1.08,0.24-1.08,0.24s-0.36-0.24-1.2-0.24c-0.6,0-2.04,0.48-3,0.24v1.2
		h-0.84v7.08h4.08v0.48h1.8V37.2h4.08v-7.08H33.36z"/>
	<polygon class="st2" points="16.32,63.6 18.72,64.2 21.12,63.6 21.12,45 36.36,45 36.36,40.68 21.12,40.68 21.12,26.76 
		16.32,26.76 16.32,40.68 1.08,40.68 1.08,45 16.32,45 	"/>
	<path class="st2" d="M9.36,19.32c-1.56-0.24-3.12,0.36-3,0.48c0.24,0.24,0.84,2.04,1.68,2.4c2.4,0.72,4.8,0.12,4.56-0.24
		C12,21.12,12,19.44,9.36,19.32L9.36,19.32z"/>
	<path class="st2" d="M21.36,19.44c-1.56-0.12-3.12,0.36-3,0.48c0.24,0.24,0.84,2.16,1.68,2.52c2.4,0.6,4.8,0,4.56-0.36
		C24,21.24,24,19.68,21.36,19.44L21.36,19.44z"/>
	<path class="st2" d="M31.92,22.32c2.52,0.72,4.08,0,4.32-0.48c0.24-0.6-0.36-2.28-3-2.52c-1.56-0.12-3.12,0.36-3,0.48
		C30.48,20.04,31.2,21.96,31.92,22.32L31.92,22.32z"/>
</g>
</svg>
